<?xml version="1.0" encoding="UTF-8" standalone="no"?>
<svg
   version="1.1"
   x="0px"
   y="0px"
   viewBox="0 0 100 125"
   id="svg10"
   sodipodi:docname="archiver.svg"
   inkscape:version="1.1.2 (0a00cf5339, 2022-02-04)"
   xmlns:inkscape="http://www.inkscape.org/namespaces/inkscape"
   xmlns:sodipodi="http://sodipodi.sourceforge.net/DTD/sodipodi-0.dtd"
   xmlns="http://www.w3.org/2000/svg"
   xmlns:svg="http://www.w3.org/2000/svg">
  <defs
     id="defs14" />
  <sodipodi:namedview
     id="namedview12"
     pagecolor="#ffffff"
     bordercolor="#666666"
     borderopacity="1.0"
     inkscape:pageshadow="2"
     inkscape:pageopacity="0.0"
     inkscape:pagecheckerboard="0"
     showgrid="false"
     inkscape:zoom="6.984"
     inkscape:cx="50.042955"
     inkscape:cy="62.5"
     inkscape:window-width="3840"
     inkscape:window-height="2089"
     inkscape:window-x="0"
     inkscape:window-y="42"
     inkscape:window-maximized="1"
     inkscape:current-layer="svg10" />
  <g
     transform="translate(0,-952.36218)"
     id="g4">
    <path
       style="text-indent:0;text-transform:none;direction:ltr;block-progression:tb;baseline-shift:baseline;color:#000000;enable-background:accumulate;"
       d="m 8,15 c -1.5707534,1.57e-4 -2.9998429,1.429247 -3,3 l 0,16 c 1.571e-4,1.570753 1.4292466,2.999843 3,3 l 3,0 0,45 c 1.57e-4,1.570753 1.429247,2.999843 3,3 l 72,0 c 1.570753,-1.57e-4 2.999843,-1.429247 3,-3 l 0,-45 3,0 c 1.570753,-1.57e-4 2.999843,-1.429247 3,-3 l 0,-16 c 0.0079,-1.471839 -1.223659,-2.84657 -2.6875,-3 C 64.236041,14.999758 36.098284,15 8,15 z m 3,6 78,0 0,10 -78,0 z m 6,16 66,0 0,42 -66,0 z m 18,2 c -1.570753,1.57e-4 -2.999843,1.429247 -3,3 l 0,10 c 1.57e-4,1.570753 1.429247,2.999843 3,3 l 30,0 c 1.570753,-1.57e-4 2.999843,-1.429247 3,-3 l 0,-10 c 0.0079,-1.471839 -1.223659,-2.84657 -2.6875,-3 C 55.237087,38.999344 45.097536,39 35,39 z m 3,6 24,0 0,4 -24,0 z"
       transform="translate(0,952.36218)"
       fill="#000000"
       fill-opacity="1"
       stroke="none"
       marker="none"
       visibility="visible"
       display="inline"
       overflow="visible"
       id="path2" />
  </g>
  <path
     style="fill:#0000ff;stroke-width:0.143184"
     d="m 13.353958,84.837948 c -0.683607,-0.206823 -1.345129,-0.696923 -1.77191,-1.31275 L 11.168385,82.928299 11.131299,59.899144 11.094213,36.869989 H 9.2434267 c -2.0614324,0 -2.319686,-0.06186 -3.0930672,-0.7409 C 5.0486776,35.1618 5.0893362,35.55041 5.0893362,25.987973 c 0,-7.990801 0.016455,-8.555015 0.2651689,-9.092211 0.3249366,-0.70183 0.9152125,-1.272552 1.6211365,-1.567433 0.477229,-0.19935 4.9453514,-0.222373 43.1575224,-0.222373 h 42.625181 l 0.632225,0.370509 c 0.363834,0.213221 0.80986,0.65061 1.050667,1.030323 l 0.418442,0.659816 v 8.833219 8.83322 l -0.465349,0.688145 c -0.285599,0.422336 -0.709108,0.815744 -1.096403,1.018474 -0.563597,0.295016 -0.827397,0.330327 -2.46779,0.330327 H 88.993403 L 88.955464,59.7437 c -0.03652,22.016111 -0.04796,22.8925 -0.305259,23.374857 -0.375563,0.704065 -0.787177,1.124383 -1.450892,1.481575 l -0.572738,0.30823 -36.440435,0.02406 C 30.1439,84.945646 13.569419,84.903136 13.353958,84.837948 Z M 83.118557,57.989691 V 36.869989 H 50.042955 16.967354 V 57.989691 79.109393 H 50.042955 83.118557 Z M 89.132302,25.987973 V 20.976518 H 50.042955 10.953608 v 5.011455 5.011454 h 39.089347 39.089347 z"
     id="path547" />
  <path
     style="fill:#0000ff;stroke-width:0.143184"
     d="m 33.934708,54.644092 c -0.315006,-0.143465 -0.80848,-0.522324 -1.09661,-0.841908 -0.80505,-0.892938 -0.862653,-1.411947 -0.810306,-7.300977 0.04377,-4.923601 0.05739,-5.142977 0.353749,-5.693647 0.357192,-0.663715 0.77751,-1.075329 1.481575,-1.450891 0.480478,-0.256298 1.148202,-0.267322 16.191068,-0.267322 h 15.689923 l 0.698361,0.431764 c 0.508443,0.314345 0.807167,0.64004 1.098451,1.197622 l 0.400089,0.765858 v 5.372249 c 0,3.611209 -0.05357,5.551065 -0.163435,5.917747 -0.224222,0.748388 -0.861032,1.479776 -1.599811,1.837413 -0.615448,0.297933 -0.685193,0.299213 -16.144217,0.296081 -14.710811,-0.003 -15.556174,-0.01684 -16.098837,-0.263989 z M 62.070447,46.96449 V 44.888316 H 49.971363 37.872279 v 2.076174 2.076174 h 12.099084 12.099084 z"
     id="path586" />
  <path
     style="fill:#000000;stroke-width:0.143184"
     d="m 13.244559,84.737955 c -0.489536,-0.173697 -1.289567,-0.8178 -1.635119,-1.316432 l -0.369463,-0.533135 -3.76e-4,-20.109715 c -2.07e-4,-11.060344 -0.04239,-21.406316 -0.09373,-22.991051 l -0.09336,-2.881336 -1.9435995,-0.103 C 7.9741718,36.743151 7.0150737,36.621505 6.8043057,36.510985 6.1882125,36.187924 5.4962616,35.355498 5.361698,34.775511 5.2909489,34.470573 5.231526,30.449291 5.2296473,25.839331 l -0.00342,-8.381745 0.3221649,-0.630573 c 0.1771908,-0.346816 0.5697033,-0.827608 0.87225,-1.068427 L 6.9707314,15.320733 21.45501,15.231753 c 7.966355,-0.04894 27.247073,-0.09726 42.846044,-0.107388 l 28.361762,-0.01841 0.660762,0.437671 c 0.363418,0.240718 0.857712,0.735012 1.098431,1.098431 l 0.43767,0.660761 v 8.70937 8.70937 l -0.491903,0.684692 c -0.784501,1.091969 -1.275498,1.289949 -3.488936,1.406802 -1.039347,0.05487 -1.899096,0.106234 -1.910552,0.114145 -0.01145,0.0079 -0.05978,10.328415 -0.107389,22.934456 l -0.08656,22.920071 -0.400853,0.605623 c -0.220471,0.333093 -0.700225,0.795478 -1.066121,1.027523 L 86.6421,84.836769 50.050717,84.825459 c -20.125261,-0.0062 -36.688033,-0.0456 -36.80616,-0.08751 z M 83.118557,57.989691 V 36.869989 H 50.042955 16.967354 V 57.989691 79.109393 H 50.042955 83.118557 Z M 89.132302,25.987973 V 20.976518 H 50.042955 10.953608 v 5.011455 5.011454 h 39.089347 39.089347 z"
     id="path1230" />
  <path
     style="fill:#0b280b;stroke-width:0.143184"
     d="m 41.357633,54.769401 -7.325071,-0.07295 -0.550072,-0.442845 c -0.790393,-0.636317 -1.162753,-1.255676 -1.266075,-2.105904 -0.04976,-0.409471 -0.0701,-3.036702 -0.0452,-5.838291 l 0.04528,-5.093798 0.39498,-0.59656 c 0.217238,-0.328108 0.663528,-0.774301 0.991755,-0.99154 l 0.596775,-0.394979 15.738214,-0.0406 15.738214,-0.0406 0.641025,0.398561 c 0.430771,0.267835 0.808165,0.680345 1.150603,1.257668 l 0.509579,0.859107 -0.103293,5.431096 c -0.05681,2.987103 -0.166124,5.596354 -0.242918,5.798334 -0.25257,0.664313 -0.866645,1.329043 -1.464695,1.58552 -0.534459,0.229206 -1.361012,0.257243 -9.03615,0.30651 -4.646334,0.02982 -11.744162,0.0214 -15.772951,-0.01873 z M 62.070447,46.96449 V 44.888316 H 49.971363 37.872279 v 2.076174 2.076174 h 12.099084 12.099084 z"
     id="path1269" />
  <path
     style="fill:#008033;stroke-width:0.143184"
     d="M 17.110538,57.989691 V 37.013173 H 50.042955 82.975372 V 57.989691 78.966208 H 50.042955 17.110538 Z m 49.272676,-3.33537 c 0.557389,-0.291184 0.883385,-0.590117 1.197622,-1.098203 L 68.0126,52.858005 68.05322,47.295539 C 68.0812,43.463491 68.0431,41.544649 67.930742,41.127383 67.712267,40.316028 66.64599,39.247375 65.837765,39.029743 65.406253,38.913549 60.893176,38.879257 49.718477,38.907265 l -15.519983,0.0389 -0.700845,0.433338 c -0.434287,0.268524 -0.865657,0.699897 -1.134181,1.134188 l -0.433339,0.70085 v 5.738664 c 0,5.606704 0.0071,5.751834 0.309052,6.311402 0.169979,0.315006 0.492144,0.746374 0.715922,0.958597 0.9125,0.865376 -0.0345,0.819481 17.035709,0.825604 l 15.626548,0.0056 z"
     id="path1536" />
  <path
     style="fill:#008033;stroke-width:0.143184"
     d="m 11.096793,26.059565 v -4.939863 h 38.946162 38.946163 v 4.939863 4.939862 H 50.042955 11.096793 Z"
     id="path1575" />
  <path
     style="fill:#0000ff;stroke-width:0.143184"
     d="m 38.015464,46.96449 v -1.932989 h 11.955899 11.955899 v 1.932989 1.93299 H 49.971363 38.015464 Z"
     id="path1614" />
  <path
     style="fill:#0000ff;stroke-width:0.143184"
     d="M 17.110538,57.989691 V 37.013173 H 50.042955 82.975372 V 57.989691 78.966208 H 50.042955 17.110538 Z m 49.485192,-3.40063 c 0.380417,-0.255942 0.869977,-0.723082 1.087911,-1.038087 l 0.396243,-0.572738 -0.03364,-6.026173 -0.03364,-6.026172 -0.405259,-0.584605 C 67.384449,40.019753 66.938942,39.574315 66.617327,39.351422 L 66.032572,38.946163 50.09109,38.908532 34.149608,38.8709 33.612605,39.214466 c -0.58369,0.373435 -1.131425,0.93639 -1.519239,1.561455 -0.225068,0.362756 -0.243186,0.914103 -0.205061,6.240018 l 0.04182,5.842104 0.429553,0.690643 c 0.538027,0.865048 1.04102,1.243227 1.822691,1.3704 0.336294,0.05471 7.61125,0.107545 16.166569,0.117402 l 15.555123,0.01792 z"
     id="path1690" />
  <path
     style="fill:#b3b3b3;stroke-width:0.143184"
     d="m 11.096793,26.059565 v -4.939863 h 38.946162 38.946163 v 4.939863 4.939862 H 50.042955 11.096793 Z"
     id="path1729" />
  <path
     style="fill:#b3b3b3;stroke-width:0.143184"
     d="M 17.110538,57.989691 V 37.013173 H 50.042955 82.975372 V 57.989691 78.966208 H 50.042955 17.110538 Z m 50.050165,-3.836343 0.923489,-0.901061 V 46.980869 40.709452 L 67.166751,39.792011 66.249311,38.87457 H 50.117808 33.986304 l -0.647666,0.445606 c -0.356215,0.245083 -0.834964,0.740946 -1.063884,1.101916 l -0.41622,0.65631 v 5.924119 5.924118 l 0.414343,0.598536 c 0.551201,0.796235 1.034781,1.231131 1.535728,1.381122 0.22686,0.06792 7.616103,0.129037 16.42054,0.135806 l 16.008069,0.01231 z"
     id="path1805" />
  <path
     style="fill:#b3b3b3;stroke-width:0.143184"
     d="m 38.015464,46.96449 v -1.932989 h 11.955899 11.955899 v 1.932989 1.93299 H 49.971363 38.015464 Z"
     id="path1844" />
</svg>
